<svg preserveAspectRatio="xMidYMid meet" data-bbox="71.042 47.459 57.958 105.041" viewBox="71.042 47.459 57.958 105.041" height="200" width="200" xmlns="http://www.w3.org/2000/svg" data-type="color" role="presentation" aria-hidden="true"><defs><style>#comp-jlks3zla svg [data-color="1"] {fill: #FFFFFF;}</style></defs>
    <g>
        <path d="M127.7 120.7L106.6 99l21-19.6c.9-.8 1.4-2 1.4-3.2 0-1.2-.5-2.4-1.3-3.3l-24.4-24.1c-1.3-1.3-3.3-1.7-5-1-1.7.7-2.8 2.3-2.8 4.2v36.3c-7.1-6.6-16.7-15.5-16.7-15.5-1-1-2.4-1.5-3.9-1.3-2.5.4-4.2 2.7-3.8 5.1.2 1.1.7 2 1.5 2.7l21 19.6-21.2 21.8c-1.8 1.8-1.7 4.7.1 6.4 1.8 1.7 4.7 1.7 6.5-.1l16.5-17v38c0 1.8 1.1 3.5 2.8 4.2.6.2 1.2.3 1.8.3 1.2 0 2.4-.5 3.2-1.3l24.4-24.1c1.7-1.8 1.7-4.6 0-6.4zm-23.1-57.8L117.8 76l-13.2 12.3V62.9zm0 74.2v-27c4.6 4.7 10 10.3 13.4 13.8l-13.4 13.2z" fill="#ffffff" data-color="1"></path>
    </g>
</svg>