<svg preserveAspectRatio="xMidYMid meet" data-bbox="49.5 49 101 102" viewBox="49.5 49 101 102" height="200" width="200" xmlns="http://www.w3.org/2000/svg" data-type="color" role="presentation" aria-hidden="true"><defs><style>#comp-jlks3zlb svg [data-color="1"] {fill: #FFFFFF;}</style></defs>
    <g>
        <path d="M147.8 115.8c1.8-5.2 2.7-10.7 2.7-16.3 0-13.5-5.3-26.2-14.8-35.7C126.1 54.3 113.5 49 100 49c-13.5 0-26.2 5.3-35.7 14.8S49.5 86 49.5 99.5c0 5.7 1 11.3 2.8 16.5-3.3 6.4-3.6 14.2-.4 21.1C56 145.9 64.6 151 73.7 151c3.4 0 6.9-.7 10.2-2.3 2.3-1.1 3.2-3.7 2.2-6l-16.6-35.4c-.5-1.1-1.4-1.9-2.5-2.3-1.1-.4-2.4-.4-3.4.2-1.5.7-2.9 1.5-4.2 2.5-.5-2.7-.8-5.4-.8-8.2 0-11.1 4.3-21.5 12.1-29.3C78.5 62.3 88.9 58 100 58c11.1 0 21.5 4.3 29.3 12.1 7.8 7.8 12.1 18.3 12.1 29.3 0 2.7-.3 5.4-.8 8.1-1.2-.9-2.6-1.7-4-2.4-1.1-.5-2.3-.6-3.4-.2-1.1.4-2 1.2-2.5 2.3l-16.6 35.4c-1.1 2.3-.1 4.9 2.2 6 3.3 1.5 6.7 2.3 10.2 2.3 9 0 17.7-5.1 21.8-13.9 3.2-6.9 2.8-14.8-.5-21.2zM62.4 117c.4-.4.7-.8 1.1-1.2l4.9 10.5 3.3 7.1 3.9 8.4c-6.3.8-12.8-2.4-15.6-8.5-.7-1.5-1.2-3.2-1.3-4.8-.4-4.1.9-8.3 3.7-11.5zm77.7 16.3c-2.8 6.1-9.3 9.4-15.6 8.5l3.8-8.2 3.6-7.7 4.7-10.1c.4.3.7.7 1 1 2.8 3.1 4.2 7.2 3.8 11.4-.1 1.8-.6 3.5-1.3 5.1z" fill="#ffffff" data-color="1"></path>
    </g>
</svg>