<svg preserveAspectRatio="xMidYMid meet" data-bbox="76.032 45.533 48.056 108.967" viewBox="76.032 45.533 48.056 108.967" height="200" width="200" xmlns="http://www.w3.org/2000/svg" data-type="color" role="presentation" aria-hidden="true"><defs><style>#comp-jlks3zl8 svg [data-color="1"] {fill: #FFFFFF;}</style></defs>
    <g>
        <path fill="#ffffff" d="M96 148.7a5.8 5.8 0 1 1-11.6 0 5.8 5.8 0 0 1 11.6 0z" data-color="1"></path>
        <path d="M95.5 136.6c-.7 0-1.4-.2-2.1-.5-2.2-1.2-3-3.9-1.9-6.1L112 90.9H80.5c-1.5 0-3-.8-3.8-2.1-.8-1.3-.9-3-.2-4.4l17.3-36.3c1.1-2.3 3.8-3.2 6-2.1s3.2 3.8 2.1 6.1L87.7 81.8h31.8c1.6 0 3 .8 3.9 2.2s.9 3.1.1 4.5l-24 45.7c-.8 1.6-2.4 2.4-4 2.4z" fill="#ffffff" data-color="1"></path>
    </g>
</svg>